<svg width="280" height="27" viewBox="0 0 280 27" fill="none" xmlns="http://www.w3.org/2000/svg">
<g filter="url(#filter0_d_151_123)">
<path d="M13.9082 11.3281C13.9082 12.4219 13.4362 13.3626 12.4922 14.1504C11.5482 14.9382 10.3079 15.332 8.77148 15.332C7.33268 15.332 6.18034 14.9707 5.31445 14.248C4.44857 13.5254 4.01562 12.5944 4.01562 11.4551C4.01562 10.6152 4.26953 9.91536 4.77734 9.35547C5.29167 8.78906 6.05013 8.31055 7.05273 7.91992C6.22591 7.45768 5.60742 6.94987 5.19727 6.39648C4.78711 5.8431 4.58203 5.2181 4.58203 4.52148C4.58203 3.46029 5.03125 2.57161 5.92969 1.85547C6.83464 1.13932 7.91536 0.78125 9.17188 0.78125C10.4284 0.78125 11.444 1.11979 12.2188 1.79688C13 2.47396 13.3906 3.32357 13.3906 4.3457C13.3906 5.00326 13.1758 5.62826 12.7461 6.2207C12.3164 6.80664 11.6849 7.28841 10.8516 7.66602C11.9323 8.12826 12.7103 8.63932 13.1855 9.19922C13.6673 9.75911 13.9082 10.4688 13.9082 11.3281ZM11.5449 4.23828C11.5449 3.44401 11.3073 2.79948 10.832 2.30469C10.3633 1.80339 9.76107 1.55273 9.02539 1.55273C8.28971 1.55273 7.6875 1.79362 7.21875 2.27539C6.75 2.75065 6.51562 3.3431 6.51562 4.05273C6.51562 4.73633 6.78255 5.31576 7.31641 5.79102C7.85026 6.26628 8.80078 6.77409 10.168 7.31445C10.6562 7.00195 11.0078 6.58854 11.2227 6.07422C11.4375 5.5599 11.5449 4.94792 11.5449 4.23828ZM11.9551 11.7871C11.9551 11.377 11.8672 11.0189 11.6914 10.7129C11.5156 10.4004 11.2617 10.1172 10.9297 9.86328C10.6107 9.61589 10.1647 9.35872 9.5918 9.0918C9.02539 8.81836 8.41016 8.54167 7.74609 8.26172C7.12109 8.60026 6.66211 9.0332 6.36914 9.56055C6.07617 10.0814 5.92969 10.6771 5.92969 11.3477C5.92969 12.3047 6.20964 13.0794 6.76953 13.6719C7.33594 14.2578 8.08789 14.5508 9.02539 14.5508C9.92383 14.5508 10.6367 14.2904 11.1641 13.7695C11.6914 13.2487 11.9551 12.5879 11.9551 11.7871ZM20.8895 18.5645C20.2775 18.5645 19.7176 18.4863 19.2098 18.3301C18.702 18.1803 18.2658 17.9753 17.9012 17.7148C17.5366 17.4544 17.2534 17.1549 17.0516 16.8164C16.8562 16.4779 16.7586 16.1296 16.7586 15.7715C16.7586 15.4525 16.8367 15.166 16.993 14.9121C17.1492 14.6517 17.3999 14.5215 17.7449 14.5215C18.1355 14.5215 18.4318 14.6191 18.6336 14.8145C18.8419 15.0033 18.9461 15.2214 18.9461 15.4688C18.9461 15.6771 18.9103 15.9408 18.8387 16.2598C18.7736 16.5788 18.7215 16.8066 18.6824 16.9434C18.728 17.002 18.8094 17.0801 18.9266 17.1777C19.0503 17.2754 19.2 17.3633 19.3758 17.4414C19.5841 17.5391 19.8022 17.6172 20.0301 17.6758C20.2579 17.7344 20.5802 17.7637 20.9969 17.7637C21.3875 17.7637 21.7618 17.6986 22.1199 17.5684C22.4845 17.4382 22.8035 17.2298 23.077 16.9434C23.3634 16.6439 23.5848 16.2923 23.741 15.8887C23.9038 15.4915 23.9852 14.9674 23.9852 14.3164C23.9852 13.9648 23.9461 13.6165 23.868 13.2715C23.7964 12.9264 23.6596 12.627 23.4578 12.373C23.256 12.1191 22.9793 11.9238 22.6277 11.7871C22.2827 11.6439 21.8432 11.5723 21.3094 11.5723H20.0301V10.4492H20.8797C21.7781 10.4492 22.4259 10.2018 22.823 9.70703C23.2202 9.21224 23.4187 8.4668 23.4187 7.4707C23.4187 6.6569 23.2267 6.04492 22.8426 5.63477C22.4585 5.2181 21.9148 5.00977 21.2117 5.00977C20.8732 5.00977 20.5932 5.05208 20.3719 5.13672C20.157 5.21484 19.9812 5.29297 19.8445 5.37109C19.6818 5.46224 19.5483 5.56315 19.4441 5.67383C19.34 5.78451 19.2618 5.86589 19.2098 5.91797C19.2553 6.1263 19.3107 6.38346 19.3758 6.68945C19.4409 6.98893 19.4734 7.27539 19.4734 7.54883C19.4734 7.78971 19.3693 8.00781 19.1609 8.20312C18.9591 8.39193 18.6596 8.48633 18.2625 8.48633C17.9174 8.48633 17.6635 8.36263 17.5008 8.11523C17.3445 7.86784 17.2664 7.58138 17.2664 7.25586C17.2664 6.91732 17.3608 6.57227 17.5496 6.2207C17.7384 5.86914 18.0184 5.54036 18.3895 5.23438C18.7605 4.92839 19.213 4.68099 19.7469 4.49219C20.2807 4.30339 20.896 4.20898 21.5926 4.20898C22.3934 4.20898 23.0542 4.32943 23.575 4.57031C24.1023 4.80469 24.5158 5.09115 24.8152 5.42969C25.1082 5.76172 25.31 6.11003 25.4207 6.47461C25.5314 6.83919 25.5867 7.15169 25.5867 7.41211C25.5867 7.73763 25.5411 8.06641 25.45 8.39844C25.3589 8.72396 25.2091 9.02669 25.0008 9.30664C24.7729 9.61263 24.4702 9.89258 24.0926 10.1465C23.7215 10.3939 23.2527 10.5957 22.6863 10.752V10.9082C23.0509 10.9408 23.4383 11.0221 23.8484 11.1523C24.2651 11.2826 24.6395 11.4746 24.9715 11.7285C25.3165 11.9954 25.5997 12.3405 25.8211 12.7637C26.0424 13.1803 26.1531 13.7109 26.1531 14.3555C26.1531 15.6055 25.6518 16.6178 24.6492 17.3926C23.6466 18.1738 22.3934 18.5645 20.8895 18.5645ZM39.277 11.3281C39.277 12.4219 38.8049 13.3626 37.8609 14.1504C36.9169 14.9382 35.6767 15.332 34.1402 15.332C32.7014 15.332 31.5491 14.9707 30.6832 14.248C29.8173 13.5254 29.3844 12.5944 29.3844 11.4551C29.3844 10.6152 29.6383 9.91536 30.1461 9.35547C30.6604 8.78906 31.4189 8.31055 32.4215 7.91992C31.5947 7.45768 30.9762 6.94987 30.566 6.39648C30.1559 5.8431 29.9508 5.2181 29.9508 4.52148C29.9508 3.46029 30.4 2.57161 31.2984 1.85547C32.2034 1.13932 33.2841 0.78125 34.5406 0.78125C35.7971 0.78125 36.8128 1.11979 37.5875 1.79688C38.3687 2.47396 38.7594 3.32357 38.7594 4.3457C38.7594 5.00326 38.5445 5.62826 38.1148 6.2207C37.6852 6.80664 37.0536 7.28841 36.2203 7.66602C37.301 8.12826 38.079 8.63932 38.5543 9.19922C39.0361 9.75911 39.277 10.4688 39.277 11.3281ZM36.9137 4.23828C36.9137 3.44401 36.676 2.79948 36.2008 2.30469C35.732 1.80339 35.1298 1.55273 34.3941 1.55273C33.6585 1.55273 33.0562 1.79362 32.5875 2.27539C32.1187 2.75065 31.8844 3.3431 31.8844 4.05273C31.8844 4.73633 32.1513 5.31576 32.6852 5.79102C33.219 6.26628 34.1695 6.77409 35.5367 7.31445C36.025 7.00195 36.3766 6.58854 36.5914 6.07422C36.8062 5.5599 36.9137 4.94792 36.9137 4.23828ZM37.3238 11.7871C37.3238 11.377 37.2359 11.0189 37.0602 10.7129C36.8844 10.4004 36.6305 10.1172 36.2984 9.86328C35.9794 9.61589 35.5335 9.35872 34.9605 9.0918C34.3941 8.81836 33.7789 8.54167 33.1148 8.26172C32.4898 8.60026 32.0309 9.0332 31.7379 9.56055C31.4449 10.0814 31.2984 10.6771 31.2984 11.3477C31.2984 12.3047 31.5784 13.0794 32.1383 13.6719C32.7047 14.2578 33.4566 14.5508 34.3941 14.5508C35.2926 14.5508 36.0055 14.2904 36.5328 13.7695C37.0602 13.2487 37.3238 12.5879 37.3238 11.7871ZM51.5316 5.87891C51.9483 6.38021 52.2576 6.9694 52.4594 7.64648C52.6677 8.31706 52.7719 9.02018 52.7719 9.75586C52.7719 10.6413 52.6449 11.4355 52.391 12.1387C52.1371 12.8353 51.7888 13.4147 51.3461 13.877C50.8904 14.3522 50.35 14.7103 49.725 14.9512C49.1 15.1921 48.4034 15.3125 47.6352 15.3125C46.7953 15.3125 46.0466 15.1725 45.3891 14.8926C44.7315 14.6126 44.1977 14.2285 43.7875 13.7402C43.3578 13.2324 43.0355 12.64 42.8207 11.9629C42.6124 11.2793 42.5082 10.5436 42.5082 9.75586C42.5082 8.98112 42.6091 8.26823 42.8109 7.61719C43.0193 6.96615 43.3415 6.37695 43.7777 5.84961C44.1944 5.3418 44.7315 4.94141 45.3891 4.64844C46.0466 4.35547 46.7986 4.20898 47.6449 4.20898C48.5368 4.20898 49.3018 4.35872 49.9398 4.6582C50.5779 4.95768 51.1085 5.36458 51.5316 5.87891ZM50.6137 9.75586C50.6137 8.20638 50.3467 7.00521 49.8129 6.15234C49.2855 5.29948 48.5661 4.87305 47.6547 4.87305C46.7302 4.87305 46.001 5.29948 45.4672 6.15234C44.9333 7.00521 44.6664 8.20638 44.6664 9.75586C44.6664 11.2272 44.9203 12.4121 45.4281 13.3105C45.9424 14.2025 46.6781 14.6484 47.6352 14.6484C48.5922 14.6484 49.3279 14.2025 49.8422 13.3105C50.3565 12.4121 50.6137 11.2272 50.6137 9.75586ZM71.2363 15H62.0859V13.6719C62.2617 13.4701 62.5059 13.2454 62.8184 12.998C63.1309 12.7441 63.502 12.4707 63.9316 12.1777C64.1921 12.002 64.5046 11.8099 64.8691 11.6016C65.2337 11.3932 65.6471 11.1654 66.1094 10.918C66.6237 10.6445 67.0176 10.4036 67.291 10.1953C67.571 9.98698 67.8249 9.72982 68.0527 9.42383C68.2025 9.22201 68.3229 8.97135 68.4141 8.67188C68.5052 8.36589 68.5508 7.93294 68.5508 7.37305C68.5508 6.55924 68.3327 5.96354 67.8965 5.58594C67.4603 5.20182 66.9004 5.00977 66.2168 5.00977C65.7936 5.00977 65.3932 5.0944 65.0156 5.26367C64.638 5.42643 64.3548 5.6543 64.166 5.94727C64.2116 6.1556 64.2669 6.40299 64.332 6.68945C64.4036 6.97591 64.4395 7.25586 64.4395 7.5293C64.4395 7.77669 64.3353 7.99805 64.127 8.19336C63.9251 8.38216 63.6224 8.47656 63.2188 8.47656C62.8932 8.47656 62.6426 8.36589 62.4668 8.14453C62.291 7.91667 62.2031 7.61393 62.2031 7.23633C62.2031 6.88477 62.3008 6.5332 62.4961 6.18164C62.6914 5.82357 62.9714 5.49479 63.3359 5.19531C63.694 4.90234 64.1367 4.66471 64.6641 4.48242C65.1914 4.30013 65.7611 4.20898 66.373 4.20898C67.7077 4.20898 68.7656 4.50846 69.5469 5.10742C70.3346 5.69987 70.7285 6.49414 70.7285 7.49023C70.7285 7.96549 70.6569 8.39844 70.5137 8.78906C70.377 9.17969 70.1523 9.52474 69.8398 9.82422C69.4948 10.1562 69.0911 10.4427 68.6289 10.6836C68.1667 10.918 67.4603 11.2467 66.5098 11.6699C65.9434 11.9238 65.416 12.1908 64.9277 12.4707C64.4395 12.7441 64.0391 13.0111 63.7266 13.2715H71.2363V15ZM84.2918 11.3281C84.2918 12.4219 83.8198 13.3626 82.8758 14.1504C81.9318 14.9382 80.6915 15.332 79.1551 15.332C77.7163 15.332 76.5639 14.9707 75.698 14.248C74.8322 13.5254 74.3992 12.5944 74.3992 11.4551C74.3992 10.6152 74.6531 9.91536 75.1609 9.35547C75.6753 8.78906 76.4337 8.31055 77.4363 7.91992C76.6095 7.45768 75.991 6.94987 75.5809 6.39648C75.1707 5.8431 74.9656 5.2181 74.9656 4.52148C74.9656 3.46029 75.4148 2.57161 76.3133 1.85547C77.2182 1.13932 78.299 0.78125 79.5555 0.78125C80.812 0.78125 81.8276 1.11979 82.6023 1.79688C83.3836 2.47396 83.7742 3.32357 83.7742 4.3457C83.7742 5.00326 83.5594 5.62826 83.1297 6.2207C82.7 6.80664 82.0685 7.28841 81.2352 7.66602C82.3159 8.12826 83.0939 8.63932 83.5691 9.19922C84.0509 9.75911 84.2918 10.4688 84.2918 11.3281ZM81.9285 4.23828C81.9285 3.44401 81.6909 2.79948 81.2156 2.30469C80.7469 1.80339 80.1447 1.55273 79.409 1.55273C78.6733 1.55273 78.0711 1.79362 77.6023 2.27539C77.1336 2.75065 76.8992 3.3431 76.8992 4.05273C76.8992 4.73633 77.1661 5.31576 77.7 5.79102C78.2339 6.26628 79.1844 6.77409 80.5516 7.31445C81.0398 7.00195 81.3914 6.58854 81.6062 6.07422C81.8211 5.5599 81.9285 4.94792 81.9285 4.23828ZM82.3387 11.7871C82.3387 11.377 82.2508 11.0189 82.075 10.7129C81.8992 10.4004 81.6453 10.1172 81.3133 9.86328C80.9943 9.61589 80.5483 9.35872 79.9754 9.0918C79.409 8.81836 78.7937 8.54167 78.1297 8.26172C77.5047 8.60026 77.0457 9.0332 76.7527 9.56055C76.4598 10.0814 76.3133 10.6771 76.3133 11.3477C76.3133 12.3047 76.5932 13.0794 77.1531 13.6719C77.7195 14.2578 78.4715 14.5508 79.409 14.5508C80.3074 14.5508 81.0203 14.2904 81.5477 13.7695C82.075 13.2487 82.3387 12.5879 82.3387 11.7871ZM97.4254 11.3281C97.4254 12.4219 96.9534 13.3626 96.0094 14.1504C95.0654 14.9382 93.8251 15.332 92.2887 15.332C90.8499 15.332 89.6975 14.9707 88.8316 14.248C87.9658 13.5254 87.5328 12.5944 87.5328 11.4551C87.5328 10.6152 87.7867 9.91536 88.2945 9.35547C88.8089 8.78906 89.5673 8.31055 90.5699 7.91992C89.7431 7.45768 89.1246 6.94987 88.7145 6.39648C88.3043 5.8431 88.0992 5.2181 88.0992 4.52148C88.0992 3.46029 88.5484 2.57161 89.4469 1.85547C90.3518 1.13932 91.4326 0.78125 92.6891 0.78125C93.9456 0.78125 94.9612 1.11979 95.7359 1.79688C96.5172 2.47396 96.9078 3.32357 96.9078 4.3457C96.9078 5.00326 96.693 5.62826 96.2633 6.2207C95.8336 6.80664 95.2021 7.28841 94.3688 7.66602C95.4495 8.12826 96.2275 8.63932 96.7027 9.19922C97.1845 9.75911 97.4254 10.4688 97.4254 11.3281ZM95.0621 4.23828C95.0621 3.44401 94.8245 2.79948 94.3492 2.30469C93.8805 1.80339 93.2783 1.55273 92.5426 1.55273C91.8069 1.55273 91.2047 1.79362 90.7359 2.27539C90.2672 2.75065 90.0328 3.3431 90.0328 4.05273C90.0328 4.73633 90.2997 5.31576 90.8336 5.79102C91.3674 6.26628 92.318 6.77409 93.6852 7.31445C94.1734 7.00195 94.525 6.58854 94.7398 6.07422C94.9547 5.5599 95.0621 4.94792 95.0621 4.23828ZM95.4723 11.7871C95.4723 11.377 95.3844 11.0189 95.2086 10.7129C95.0328 10.4004 94.7789 10.1172 94.4469 9.86328C94.1279 9.61589 93.6819 9.35872 93.109 9.0918C92.5426 8.81836 91.9273 8.54167 91.2633 8.26172C90.6383 8.60026 90.1793 9.0332 89.8863 9.56055C89.5934 10.0814 89.4469 10.6771 89.4469 11.3477C89.4469 12.3047 89.7268 13.0794 90.2867 13.6719C90.8531 14.2578 91.6051 14.5508 92.5426 14.5508C93.441 14.5508 94.1539 14.2904 94.6813 13.7695C95.2086 13.2487 95.4723 12.5879 95.4723 11.7871ZM109.68 5.87891C110.097 6.38021 110.406 6.9694 110.608 7.64648C110.816 8.31706 110.92 9.02018 110.92 9.75586C110.92 10.6413 110.793 11.4355 110.539 12.1387C110.286 12.8353 109.937 13.4147 109.495 13.877C109.039 14.3522 108.498 14.7103 107.873 14.9512C107.248 15.1921 106.552 15.3125 105.784 15.3125C104.944 15.3125 104.195 15.1725 103.537 14.8926C102.88 14.6126 102.346 14.2285 101.936 13.7402C101.506 13.2324 101.184 12.64 100.969 11.9629C100.761 11.2793 100.657 10.5436 100.657 9.75586C100.657 8.98112 100.758 8.26823 100.959 7.61719C101.168 6.96615 101.49 6.37695 101.926 5.84961C102.343 5.3418 102.88 4.94141 103.537 4.64844C104.195 4.35547 104.947 4.20898 105.793 4.20898C106.685 4.20898 107.45 4.35872 108.088 4.6582C108.726 4.95768 109.257 5.36458 109.68 5.87891ZM108.762 9.75586C108.762 8.20638 108.495 7.00521 107.961 6.15234C107.434 5.29948 106.715 4.87305 105.803 4.87305C104.879 4.87305 104.149 5.29948 103.616 6.15234C103.082 7.00521 102.815 8.20638 102.815 9.75586C102.815 11.2272 103.069 12.4121 103.577 13.3105C104.091 14.2025 104.827 14.6484 105.784 14.6484C106.741 14.6484 107.476 14.2025 107.991 13.3105C108.505 12.4121 108.762 11.2272 108.762 9.75586ZM130.068 11.3281C130.068 12.4219 129.596 13.3626 128.652 14.1504C127.708 14.9382 126.468 15.332 124.932 15.332C123.493 15.332 122.34 14.9707 121.475 14.248C120.609 13.5254 120.176 12.5944 120.176 11.4551C120.176 10.6152 120.43 9.91536 120.938 9.35547C121.452 8.78906 122.21 8.31055 123.213 7.91992C122.386 7.45768 121.768 6.94987 121.357 6.39648C120.947 5.8431 120.742 5.2181 120.742 4.52148C120.742 3.46029 121.191 2.57161 122.09 1.85547C122.995 1.13932 124.076 0.78125 125.332 0.78125C126.589 0.78125 127.604 1.11979 128.379 1.79688C129.16 2.47396 129.551 3.32357 129.551 4.3457C129.551 5.00326 129.336 5.62826 128.906 6.2207C128.477 6.80664 127.845 7.28841 127.012 7.66602C128.092 8.12826 128.87 8.63932 129.346 9.19922C129.827 9.75911 130.068 10.4688 130.068 11.3281ZM127.705 4.23828C127.705 3.44401 127.467 2.79948 126.992 2.30469C126.523 1.80339 125.921 1.55273 125.186 1.55273C124.45 1.55273 123.848 1.79362 123.379 2.27539C122.91 2.75065 122.676 3.3431 122.676 4.05273C122.676 4.73633 122.943 5.31576 123.477 5.79102C124.01 6.26628 124.961 6.77409 126.328 7.31445C126.816 7.00195 127.168 6.58854 127.383 6.07422C127.598 5.5599 127.705 4.94792 127.705 4.23828ZM128.115 11.7871C128.115 11.377 128.027 11.0189 127.852 10.7129C127.676 10.4004 127.422 10.1172 127.09 9.86328C126.771 9.61589 126.325 9.35872 125.752 9.0918C125.186 8.81836 124.57 8.54167 123.906 8.26172C123.281 8.60026 122.822 9.0332 122.529 9.56055C122.236 10.0814 122.09 10.6771 122.09 11.3477C122.09 12.3047 122.37 13.0794 122.93 13.6719C123.496 14.2578 124.248 14.5508 125.186 14.5508C126.084 14.5508 126.797 14.2904 127.324 13.7695C127.852 13.2487 128.115 12.5879 128.115 11.7871ZM142.323 5.87891C142.74 6.38021 143.049 6.9694 143.251 7.64648C143.459 8.31706 143.563 9.02018 143.563 9.75586C143.563 10.6413 143.436 11.4355 143.182 12.1387C142.929 12.8353 142.58 13.4147 142.137 13.877C141.682 14.3522 141.141 14.7103 140.516 14.9512C139.891 15.1921 139.195 15.3125 138.427 15.3125C137.587 15.3125 136.838 15.1725 136.18 14.8926C135.523 14.6126 134.989 14.2285 134.579 13.7402C134.149 13.2324 133.827 12.64 133.612 11.9629C133.404 11.2793 133.3 10.5436 133.3 9.75586C133.3 8.98112 133.401 8.26823 133.602 7.61719C133.811 6.96615 134.133 6.37695 134.569 5.84961C134.986 5.3418 135.523 4.94141 136.18 4.64844C136.838 4.35547 137.59 4.20898 138.436 4.20898C139.328 4.20898 140.093 4.35872 140.731 4.6582C141.369 4.95768 141.9 5.36458 142.323 5.87891ZM141.405 9.75586C141.405 8.20638 141.138 7.00521 140.604 6.15234C140.077 5.29948 139.358 4.87305 138.446 4.87305C137.522 4.87305 136.792 5.29948 136.259 6.15234C135.725 7.00521 135.458 8.20638 135.458 9.75586C135.458 11.2272 135.712 12.4121 136.22 13.3105C136.734 14.2025 137.47 14.6484 138.427 14.6484C139.384 14.6484 140.119 14.2025 140.634 13.3105C141.148 12.4121 141.405 11.2272 141.405 9.75586ZM156.004 15H146.853V13.6719C147.029 13.4701 147.273 13.2454 147.586 12.998C147.898 12.7441 148.269 12.4707 148.699 12.1777C148.959 12.002 149.272 11.8099 149.636 11.6016C150.001 11.3932 150.414 11.1654 150.877 10.918C151.391 10.6445 151.785 10.4036 152.058 10.1953C152.338 9.98698 152.592 9.72982 152.82 9.42383C152.97 9.22201 153.09 8.97135 153.181 8.67188C153.272 8.36589 153.318 7.93294 153.318 7.37305C153.318 6.55924 153.1 5.96354 152.664 5.58594C152.227 5.20182 151.668 5.00977 150.984 5.00977C150.561 5.00977 150.16 5.0944 149.783 5.26367C149.405 5.42643 149.122 5.6543 148.933 5.94727C148.979 6.1556 149.034 6.40299 149.099 6.68945C149.171 6.97591 149.207 7.25586 149.207 7.5293C149.207 7.77669 149.102 7.99805 148.894 8.19336C148.692 8.38216 148.39 8.47656 147.986 8.47656C147.66 8.47656 147.41 8.36589 147.234 8.14453C147.058 7.91667 146.97 7.61393 146.97 7.23633C146.97 6.88477 147.068 6.5332 147.263 6.18164C147.459 5.82357 147.739 5.49479 148.103 5.19531C148.461 4.90234 148.904 4.66471 149.431 4.48242C149.959 4.30013 150.528 4.20898 151.14 4.20898C152.475 4.20898 153.533 4.50846 154.314 5.10742C155.102 5.69987 155.496 6.49414 155.496 7.49023C155.496 7.96549 155.424 8.39844 155.281 8.78906C155.144 9.17969 154.92 9.52474 154.607 9.82422C154.262 10.1562 153.858 10.4427 153.396 10.6836C152.934 10.918 152.227 11.2467 151.277 11.6699C150.711 11.9238 150.183 12.1908 149.695 12.4707C149.207 12.7441 148.806 13.0111 148.494 13.2715H156.004V15ZM169.059 11.3281C169.059 12.4219 168.587 13.3626 167.643 14.1504C166.699 14.9382 165.459 15.332 163.922 15.332C162.483 15.332 161.331 14.9707 160.465 14.248C159.599 13.5254 159.166 12.5944 159.166 11.4551C159.166 10.6152 159.42 9.91536 159.928 9.35547C160.442 8.78906 161.201 8.31055 162.204 7.91992C161.377 7.45768 160.758 6.94987 160.348 6.39648C159.938 5.8431 159.733 5.2181 159.733 4.52148C159.733 3.46029 160.182 2.57161 161.08 1.85547C161.985 1.13932 163.066 0.78125 164.323 0.78125C165.579 0.78125 166.595 1.11979 167.37 1.79688C168.151 2.47396 168.541 3.32357 168.541 4.3457C168.541 5.00326 168.327 5.62826 167.897 6.2207C167.467 6.80664 166.836 7.28841 166.002 7.66602C167.083 8.12826 167.861 8.63932 168.336 9.19922C168.818 9.75911 169.059 10.4688 169.059 11.3281ZM166.696 4.23828C166.696 3.44401 166.458 2.79948 165.983 2.30469C165.514 1.80339 164.912 1.55273 164.176 1.55273C163.441 1.55273 162.838 1.79362 162.37 2.27539C161.901 2.75065 161.666 3.3431 161.666 4.05273C161.666 4.73633 161.933 5.31576 162.467 5.79102C163.001 6.26628 163.952 6.77409 165.319 7.31445C165.807 7.00195 166.159 6.58854 166.373 6.07422C166.588 5.5599 166.696 4.94792 166.696 4.23828ZM167.106 11.7871C167.106 11.377 167.018 11.0189 166.842 10.7129C166.666 10.4004 166.413 10.1172 166.08 9.86328C165.761 9.61589 165.316 9.35872 164.743 9.0918C164.176 8.81836 163.561 8.54167 162.897 8.26172C162.272 8.60026 161.813 9.0332 161.52 9.56055C161.227 10.0814 161.08 10.6771 161.08 11.3477C161.08 12.3047 161.36 13.0794 161.92 13.6719C162.487 14.2578 163.239 14.5508 164.176 14.5508C165.075 14.5508 165.788 14.2904 166.315 13.7695C166.842 13.2487 167.106 12.5879 167.106 11.7871ZM188.217 11.3281C188.217 12.4219 187.745 13.3626 186.801 14.1504C185.857 14.9382 184.617 15.332 183.08 15.332C181.641 15.332 180.489 14.9707 179.623 14.248C178.757 13.5254 178.324 12.5944 178.324 11.4551C178.324 10.6152 178.578 9.91536 179.086 9.35547C179.6 8.78906 180.359 8.31055 181.361 7.91992C180.535 7.45768 179.916 6.94987 179.506 6.39648C179.096 5.8431 178.891 5.2181 178.891 4.52148C178.891 3.46029 179.34 2.57161 180.238 1.85547C181.143 1.13932 182.224 0.78125 183.48 0.78125C184.737 0.78125 185.753 1.11979 186.527 1.79688C187.309 2.47396 187.699 3.32357 187.699 4.3457C187.699 5.00326 187.484 5.62826 187.055 6.2207C186.625 6.80664 185.993 7.28841 185.16 7.66602C186.241 8.12826 187.019 8.63932 187.494 9.19922C187.976 9.75911 188.217 10.4688 188.217 11.3281ZM185.854 4.23828C185.854 3.44401 185.616 2.79948 185.141 2.30469C184.672 1.80339 184.07 1.55273 183.334 1.55273C182.598 1.55273 181.996 1.79362 181.527 2.27539C181.059 2.75065 180.824 3.3431 180.824 4.05273C180.824 4.73633 181.091 5.31576 181.625 5.79102C182.159 6.26628 183.109 6.77409 184.477 7.31445C184.965 7.00195 185.316 6.58854 185.531 6.07422C185.746 5.5599 185.854 4.94792 185.854 4.23828ZM186.264 11.7871C186.264 11.377 186.176 11.0189 186 10.7129C185.824 10.4004 185.57 10.1172 185.238 9.86328C184.919 9.61589 184.473 9.35872 183.9 9.0918C183.334 8.81836 182.719 8.54167 182.055 8.26172C181.43 8.60026 180.971 9.0332 180.678 9.56055C180.385 10.0814 180.238 10.6771 180.238 11.3477C180.238 12.3047 180.518 13.0794 181.078 13.6719C181.645 14.2578 182.396 14.5508 183.334 14.5508C184.232 14.5508 184.945 14.2904 185.473 13.7695C186 13.2487 186.264 12.5879 186.264 11.7871ZM200.491 5.15625L193.528 18.5645H192.307L198.86 6.16211H195.022C194.456 6.16211 194.013 6.16862 193.694 6.18164C193.375 6.19466 193.082 6.25651 192.815 6.36719C192.613 6.45182 192.431 6.66992 192.268 7.02148C192.112 7.36654 191.992 7.80924 191.907 8.34961H191.311V4.52148H200.491V5.15625ZM212.013 9.96094C212.013 11.0938 211.834 12.1615 211.476 13.1641C211.118 14.1602 210.604 15.0358 209.933 15.791C209.276 16.5332 208.472 17.1484 207.521 17.6367C206.577 18.1315 205.519 18.457 204.347 18.6133L204.171 17.7344L205.05 17.5781C206.45 17.1354 207.544 16.4551 208.332 15.5371C209.119 14.6191 209.627 13.4538 209.855 12.041C209.321 12.4967 208.787 12.832 208.254 13.0469C207.726 13.2552 207.13 13.3594 206.466 13.3594C205.405 13.3594 204.481 12.946 203.693 12.1191C202.912 11.2923 202.521 10.2507 202.521 8.99414C202.521 7.64648 202.974 6.51042 203.879 5.58594C204.79 4.66146 205.913 4.19922 207.248 4.19922C208.699 4.19922 209.855 4.7168 210.714 5.75195C211.58 6.78711 212.013 8.1901 212.013 9.96094ZM209.943 9.84375C209.943 8.32031 209.692 7.12891 209.191 6.26953C208.696 5.40365 208.042 4.9707 207.228 4.9707C206.453 4.9707 205.828 5.30599 205.353 5.97656C204.878 6.64062 204.64 7.55859 204.64 8.73047C204.64 9.78516 204.881 10.6315 205.363 11.2695C205.851 11.9076 206.502 12.2266 207.316 12.2266C207.824 12.2266 208.289 12.1354 208.712 11.9531C209.136 11.7643 209.53 11.4648 209.894 11.0547C209.894 11.0286 209.897 10.9766 209.904 10.8984C209.917 10.8203 209.923 10.7096 209.923 10.5664C209.923 10.4753 209.927 10.3646 209.933 10.2344C209.94 10.1042 209.943 9.97396 209.943 9.84375ZM222.129 15H215.547V14.3066C215.743 14.2936 216.045 14.2676 216.455 14.2285C216.872 14.1829 217.159 14.1374 217.315 14.0918C217.517 14.0267 217.67 13.9225 217.774 13.7793C217.885 13.6296 217.94 13.4082 217.94 13.1152V6.25977H215.508V5.43945H216.045C216.748 5.43945 217.377 5.30924 217.93 5.04883C218.49 4.78841 218.89 4.50846 219.131 4.20898H219.942C219.922 4.63216 219.903 5.12695 219.883 5.69336C219.864 6.25977 219.854 6.76758 219.854 7.2168V13.0078C219.854 13.2357 219.903 13.4408 220 13.623C220.105 13.7988 220.251 13.929 220.44 14.0137C220.609 14.0853 220.886 14.1504 221.27 14.209C221.654 14.2676 221.941 14.3001 222.129 14.3066V15ZM240.096 5.15625L233.133 18.5645H231.912L238.465 6.16211H234.627C234.061 6.16211 233.618 6.16862 233.299 6.18164C232.98 6.19466 232.687 6.25651 232.42 6.36719C232.218 6.45182 232.036 6.66992 231.873 7.02148C231.717 7.36654 231.596 7.80924 231.512 8.34961H230.916V4.52148H240.096V5.15625ZM251.891 14.1211H249.909V18.5645H248.034V14.1211H241.784V12.6172L248.63 4.26758H249.909V12.8418H251.891V14.1211ZM248.034 12.8418V6.44531L242.761 12.8418H248.034ZM258.57 18.5645C257.958 18.5645 257.398 18.4863 256.89 18.3301C256.382 18.1803 255.946 17.9753 255.582 17.7148C255.217 17.4544 254.934 17.1549 254.732 16.8164C254.537 16.4779 254.439 16.1296 254.439 15.7715C254.439 15.4525 254.517 15.166 254.673 14.9121C254.83 14.6517 255.08 14.5215 255.425 14.5215C255.816 14.5215 256.112 14.6191 256.314 14.8145C256.522 15.0033 256.627 15.2214 256.627 15.4688C256.627 15.6771 256.591 15.9408 256.519 16.2598C256.454 16.5788 256.402 16.8066 256.363 16.9434C256.408 17.002 256.49 17.0801 256.607 17.1777C256.731 17.2754 256.88 17.3633 257.056 17.4414C257.265 17.5391 257.483 17.6172 257.711 17.6758C257.938 17.7344 258.261 17.7637 258.677 17.7637C259.068 17.7637 259.442 17.6986 259.8 17.5684C260.165 17.4382 260.484 17.2298 260.757 16.9434C261.044 16.6439 261.265 16.2923 261.421 15.8887C261.584 15.4915 261.666 14.9674 261.666 14.3164C261.666 13.9648 261.627 13.6165 261.548 13.2715C261.477 12.9264 261.34 12.627 261.138 12.373C260.936 12.1191 260.66 11.9238 260.308 11.7871C259.963 11.6439 259.524 11.5723 258.99 11.5723H257.711V10.4492H258.56C259.459 10.4492 260.106 10.2018 260.504 9.70703C260.901 9.21224 261.099 8.4668 261.099 7.4707C261.099 6.6569 260.907 6.04492 260.523 5.63477C260.139 5.2181 259.595 5.00977 258.892 5.00977C258.554 5.00977 258.274 5.05208 258.052 5.13672C257.837 5.21484 257.662 5.29297 257.525 5.37109C257.362 5.46224 257.229 5.56315 257.125 5.67383C257.02 5.78451 256.942 5.86589 256.89 5.91797C256.936 6.1263 256.991 6.38346 257.056 6.68945C257.121 6.98893 257.154 7.27539 257.154 7.54883C257.154 7.78971 257.05 8.00781 256.841 8.20312C256.64 8.39193 256.34 8.48633 255.943 8.48633C255.598 8.48633 255.344 8.36263 255.181 8.11523C255.025 7.86784 254.947 7.58138 254.947 7.25586C254.947 6.91732 255.041 6.57227 255.23 6.2207C255.419 5.86914 255.699 5.54036 256.07 5.23438C256.441 4.92839 256.893 4.68099 257.427 4.49219C257.961 4.30339 258.576 4.20898 259.273 4.20898C260.074 4.20898 260.735 4.32943 261.255 4.57031C261.783 4.80469 262.196 5.09115 262.496 5.42969C262.789 5.76172 262.99 6.11003 263.101 6.47461C263.212 6.83919 263.267 7.15169 263.267 7.41211C263.267 7.73763 263.222 8.06641 263.13 8.39844C263.039 8.72396 262.89 9.02669 262.681 9.30664C262.453 9.61263 262.151 9.89258 261.773 10.1465C261.402 10.3939 260.933 10.5957 260.367 10.752V10.9082C260.731 10.9408 261.119 11.0221 261.529 11.1523C261.946 11.2826 262.32 11.4746 262.652 11.7285C262.997 11.9954 263.28 12.3405 263.502 12.7637C263.723 13.1803 263.834 13.7109 263.834 14.3555C263.834 15.6055 263.332 16.6178 262.33 17.3926C261.327 18.1738 260.074 18.5645 258.57 18.5645ZM274.282 10.4199C274.711 10.7585 275.066 11.1947 275.346 11.7285C275.633 12.2624 275.776 12.9297 275.776 13.7305C275.776 15.1302 275.297 16.2858 274.34 17.1973C273.383 18.1087 272.169 18.5645 270.698 18.5645C269.558 18.5645 268.595 18.2943 267.807 17.7539C267.019 17.2135 266.625 16.5853 266.625 15.8691C266.625 15.5371 266.707 15.2474 266.87 15C267.032 14.7526 267.283 14.6289 267.621 14.6289C268.012 14.6289 268.308 14.7331 268.51 14.9414C268.718 15.1432 268.823 15.3646 268.823 15.6055C268.823 15.8138 268.787 16.0742 268.715 16.3867C268.644 16.6992 268.588 16.9303 268.549 17.0801C268.601 17.1257 268.686 17.1875 268.803 17.2656C268.92 17.3438 269.06 17.4186 269.223 17.4902C269.392 17.5618 269.597 17.6237 269.838 17.6758C270.086 17.7344 270.372 17.7637 270.698 17.7637C271.114 17.7637 271.508 17.679 271.879 17.5098C272.25 17.3405 272.563 17.0898 272.817 16.7578C273.097 16.3932 273.305 15.9766 273.442 15.5078C273.585 15.0456 273.657 14.4564 273.657 13.7402C273.657 12.8223 273.399 12.0638 272.885 11.4648C272.377 10.8594 271.707 10.5566 270.873 10.5566C270.353 10.5566 269.864 10.6543 269.409 10.8496C268.959 11.0449 268.556 11.3704 268.198 11.8262L267.543 11.5723L268.373 4.52148H275.366V6.25977H269.164L268.657 10.4004C268.95 10.1921 269.334 9.98698 269.809 9.78516C270.291 9.57682 270.818 9.47266 271.391 9.47266C271.866 9.47266 272.358 9.54753 272.866 9.69727C273.38 9.84049 273.852 10.0814 274.282 10.4199Z" fill="#545454"/>
</g>
<defs>
<filter id="filter0_d_151_123" x="0.015625" y="0.78125" width="279.76" height="25.832" filterUnits="userSpaceOnUse" color-interpolation-filters="sRGB">
<feFlood flood-opacity="0" result="BackgroundImageFix"/>
<feColorMatrix in="SourceAlpha" type="matrix" values="0 0 0 0 0 0 0 0 0 0 0 0 0 0 0 0 0 0 127 0" result="hardAlpha"/>
<feOffset dy="4"/>
<feGaussianBlur stdDeviation="2"/>
<feComposite in2="hardAlpha" operator="out"/>
<feColorMatrix type="matrix" values="0 0 0 0 0 0 0 0 0 0 0 0 0 0 0 0 0 0 0.25 0"/>
<feBlend mode="normal" in2="BackgroundImageFix" result="effect1_dropShadow_151_123"/>
<feBlend mode="normal" in="SourceGraphic" in2="effect1_dropShadow_151_123" result="shape"/>
</filter>
</defs>
</svg>
